<?xml version="1.0" encoding="UTF-8" standalone="no"?>
<!DOCTYPE svg PUBLIC "-//W3C//DTD SVG 1.1//EN"
 "http://www.w3.org/Graphics/SVG/1.1/DTD/svg11.dtd">
<!-- Generated by graphviz version 2.42.4 (0)
 -->
<!-- Title: FLOW Pages: 1 -->
<svg width="1432pt" height="246pt"
 viewBox="0.00 0.00 1432.00 246.00" xmlns="http://www.w3.org/2000/svg" xmlns:xlink="http://www.w3.org/1999/xlink">
<g id="graph0" class="graph" transform="scale(1 1) rotate(0) translate(18 228)">
<title>FLOW</title>
<polygon fill="white" stroke="transparent" points="-18,18 -18,-228 1414,-228 1414,18 -18,18"/>
<!-- start -->
<g id="node1" class="node">
<title>start</title>
<path fill="#e8f1ff" stroke="#b8c7d9" d="M42,-111C42,-111 12,-111 12,-111 6,-111 0,-105 0,-99 0,-99 0,-87 0,-87 0,-81 6,-75 12,-75 12,-75 42,-75 42,-75 48,-75 54,-81 54,-87 54,-87 54,-99 54,-99 54,-105 48,-111 42,-111"/>
<text text-anchor="middle" x="27" y="-90.2" font-family="Noto Sans CJK SC" font-size="11.00">启动</text>
</g>
<!-- auth -->
<g id="node2" class="node">
<title>auth</title>
<path fill="#e8f1ff" stroke="#b8c7d9" d="M172,-111C172,-111 115,-111 115,-111 109,-111 103,-105 103,-99 103,-99 103,-87 103,-87 103,-81 109,-75 115,-75 115,-75 172,-75 172,-75 178,-75 184,-81 184,-87 184,-87 184,-99 184,-99 184,-105 178,-111 172,-111"/>
<text text-anchor="middle" x="143.5" y="-90.2" font-family="Noto Sans CJK SC" font-size="11.00">Session 检查</text>
</g>
<!-- start&#45;&gt;auth -->
<g id="edge1" class="edge">
<title>start&#45;&gt;auth</title>
<path fill="none" stroke="#6b7280" d="M54.27,-93C66.53,-93 81.49,-93 95.59,-93"/>
<polygon fill="#6b7280" stroke="#6b7280" points="95.87,-95.45 102.87,-93 95.87,-90.55 95.87,-95.45"/>
</g>
<!-- login -->
<g id="node3" class="node">
<title>login</title>
<path fill="#fff5e8" stroke="#b8c7d9" d="M445.5,-111C445.5,-111 398.5,-111 398.5,-111 392.5,-111 386.5,-105 386.5,-99 386.5,-99 386.5,-87 386.5,-87 386.5,-81 392.5,-75 398.5,-75 398.5,-75 445.5,-75 445.5,-75 451.5,-75 457.5,-81 457.5,-87 457.5,-87 457.5,-99 457.5,-99 457.5,-105 451.5,-111 445.5,-111"/>
<text text-anchor="middle" x="422" y="-90.2" font-family="Noto Sans CJK SC" font-size="11.00">登录 / 注册</text>
</g>
<!-- auth&#45;&gt;login -->
<g id="edge2" class="edge">
<title>auth&#45;&gt;login</title>
<path fill="none" stroke="#6b7280" d="M184.12,-93C235.89,-93 326.16,-93 379.06,-93"/>
<polygon fill="#6b7280" stroke="#6b7280" points="379.26,-95.45 386.26,-93 379.26,-90.55 379.26,-95.45"/>
<text text-anchor="middle" x="269" y="-96.8" font-family="Times,serif" font-size="14.00">无 session</text>
</g>
<!-- pin -->
<g id="node4" class="node">
<title>pin</title>
<path fill="#ffe8e8" stroke="#b8c7d9" d="M454.5,-50C454.5,-50 389.5,-50 389.5,-50 383.5,-50 377.5,-44 377.5,-38 377.5,-38 377.5,-26 377.5,-26 377.5,-20 383.5,-14 389.5,-14 389.5,-14 454.5,-14 454.5,-14 460.5,-14 466.5,-20 466.5,-26 466.5,-26 466.5,-38 466.5,-38 466.5,-44 460.5,-50 454.5,-50"/>
<text text-anchor="middle" x="422" y="-29.2" font-family="Noto Sans CJK SC" font-size="11.00">PIN / 生物识别</text>
</g>
<!-- auth&#45;&gt;pin -->
<g id="edge3" class="edge">
<title>auth&#45;&gt;pin</title>
<path fill="none" stroke="#6b7280" d="M184.23,-78.96C192.05,-76.45 200.24,-74 208,-72 262.87,-57.84 326.91,-46.5 370.33,-39.56"/>
<polygon fill="#6b7280" stroke="#6b7280" points="370.85,-41.95 377.38,-38.44 370.09,-37.11 370.85,-41.95"/>
<text text-anchor="middle" x="269" y="-75.8" font-family="Times,serif" font-size="14.00">有 session + PIN</text>
</g>
<!-- home -->
<g id="node5" class="node">
<title>home</title>
<path fill="#eafbf3" stroke="#b8c7d9" d="M687,-126C687,-126 605,-126 605,-126 599,-126 593,-120 593,-114 593,-114 593,-102 593,-102 593,-96 599,-90 605,-90 605,-90 687,-90 687,-90 693,-90 699,-96 699,-102 699,-102 699,-114 699,-114 699,-120 693,-126 687,-126"/>
<text text-anchor="middle" x="646" y="-111.2" font-family="Noto Sans CJK SC" font-size="11.00">首页</text>
<text text-anchor="middle" x="646" y="-99.2" font-family="Noto Sans CJK SC" font-size="11.00">时间线 + 多维标签</text>
</g>
<!-- auth&#45;&gt;home -->
<g id="edge4" class="edge">
<title>auth&#45;&gt;home</title>
<path fill="none" stroke="#6b7280" d="M184.06,-107.77C191.9,-110.22 200.14,-112.46 208,-114 365.49,-144.92 409.37,-139.62 569,-123 574.46,-122.43 580.1,-121.66 585.74,-120.77"/>
<polygon fill="#6b7280" stroke="#6b7280" points="586.36,-123.16 592.86,-119.59 585.55,-118.32 586.36,-123.16"/>
<text text-anchor="middle" x="422" y="-139.8" font-family="Times,serif" font-size="14.00">有 session / 无 PIN</text>
</g>
<!-- login&#45;&gt;home -->
<g id="edge7" class="edge">
<title>login&#45;&gt;home</title>
<path fill="none" stroke="#6b7280" d="M457.69,-95.34C491.85,-97.65 544.72,-101.22 585.59,-103.99"/>
<polygon fill="#6b7280" stroke="#6b7280" points="585.66,-106.45 592.81,-104.47 585.99,-101.56 585.66,-106.45"/>
<text text-anchor="middle" x="541.5" y="-105.8" font-family="Times,serif" font-size="14.00">成功</text>
</g>
<!-- pin&#45;&gt;home -->
<g id="edge5" class="edge">
<title>pin&#45;&gt;home</title>
<path fill="none" stroke="#6b7280" d="M466.71,-44.89C495.86,-53.7 534.93,-65.93 569,-78 577.04,-80.85 585.5,-84.02 593.74,-87.2"/>
<polygon fill="#6b7280" stroke="#6b7280" points="593.18,-89.61 600.59,-89.86 594.96,-85.04 593.18,-89.61"/>
<text text-anchor="middle" x="541.5" y="-81.8" font-family="Times,serif" font-size="14.00">成功</text>
</g>
<!-- lockout -->
<g id="node12" class="node">
<title>lockout</title>
<path fill="#ffe8e8" stroke="#b8c7d9" d="M674.5,-36C674.5,-36 617.5,-36 617.5,-36 611.5,-36 605.5,-30 605.5,-24 605.5,-24 605.5,-12 605.5,-12 605.5,-6 611.5,0 617.5,0 617.5,0 674.5,0 674.5,0 680.5,0 686.5,-6 686.5,-12 686.5,-12 686.5,-24 686.5,-24 686.5,-30 680.5,-36 674.5,-36"/>
<text text-anchor="middle" x="646" y="-21.2" font-family="Noto Sans CJK SC" font-size="11.00">5 次 PIN 错误</text>
<text text-anchor="middle" x="646" y="-9.2" font-family="Noto Sans CJK SC" font-size="11.00">退出 Session</text>
</g>
<!-- pin&#45;&gt;lockout -->
<g id="edge6" class="edge">
<title>pin&#45;&gt;lockout</title>
<path fill="none" stroke="#6b7280" d="M466.79,-23.3C481.71,-20.73 498.52,-18.27 514,-17 538.36,-15.01 544.56,-16.84 569,-17 578.36,-17.06 588.36,-17.17 597.94,-17.28"/>
<polygon fill="#6b7280" stroke="#6b7280" points="598.13,-19.74 605.16,-17.38 598.2,-14.84 598.13,-19.74"/>
<text text-anchor="middle" x="541.5" y="-20.8" font-family="Times,serif" font-size="14.00">失败 ×5</text>
</g>
<!-- search -->
<g id="node6" class="node">
<title>search</title>
<path fill="#eafbf3" stroke="#b8c7d9" d="M894,-210C894,-210 802,-210 802,-210 796,-210 790,-204 790,-198 790,-198 790,-186 790,-186 790,-180 796,-174 802,-174 802,-174 894,-174 894,-174 900,-174 906,-180 906,-186 906,-186 906,-198 906,-198 906,-204 900,-210 894,-210"/>
<text text-anchor="middle" x="848" y="-195.2" font-family="Noto Sans CJK SC" font-size="11.00">发现 / 归档</text>
<text text-anchor="middle" x="848" y="-183.2" font-family="Noto Sans CJK SC" font-size="11.00">关键词 + 年月 + 标签</text>
</g>
<!-- home&#45;&gt;search -->
<g id="edge8" class="edge">
<title>home&#45;&gt;search</title>
<path fill="none" stroke="#6b7280" d="M670.93,-126.06C685.39,-136.29 704.54,-148.67 723,-157 741.88,-165.52 763.32,-172.45 783,-177.84"/>
<polygon fill="#6b7280" stroke="#6b7280" points="782.49,-180.23 789.88,-179.67 783.75,-175.5 782.49,-180.23"/>
</g>
<!-- editor -->
<g id="node7" class="node">
<title>editor</title>
<path fill="#eafbf3" stroke="#b8c7d9" d="M1055,-150C1055,-150 942,-150 942,-150 936,-150 930,-144 930,-138 930,-138 930,-126 930,-126 930,-120 936,-114 942,-114 942,-114 1055,-114 1055,-114 1061,-114 1067,-120 1067,-126 1067,-126 1067,-138 1067,-138 1067,-144 1061,-150 1055,-150"/>
<text text-anchor="middle" x="998.5" y="-135.2" font-family="Noto Sans CJK SC" font-size="11.00">创作</text>
<text text-anchor="middle" x="998.5" y="-123.2" font-family="Noto Sans CJK SC" font-size="11.00">Markdown + 图片 + 版本</text>
</g>
<!-- home&#45;&gt;editor -->
<g id="edge9" class="edge">
<title>home&#45;&gt;editor</title>
<path fill="none" stroke="#6b7280" d="M699.09,-111.57C758.25,-115.62 855.26,-122.26 922.54,-126.87"/>
<polygon fill="#6b7280" stroke="#6b7280" points="922.62,-129.33 929.77,-127.36 922.96,-124.44 922.62,-129.33"/>
<text text-anchor="middle" x="744.5" y="-118.8" font-family="Times,serif" font-size="14.00">管理员</text>
</g>
<!-- detail -->
<g id="node8" class="node">
<title>detail</title>
<path fill="#f3eeff" stroke="#b8c7d9" d="M888.5,-98C888.5,-98 807.5,-98 807.5,-98 801.5,-98 795.5,-92 795.5,-86 795.5,-86 795.5,-74 795.5,-74 795.5,-68 801.5,-62 807.5,-62 807.5,-62 888.5,-62 888.5,-62 894.5,-62 900.5,-68 900.5,-74 900.5,-74 900.5,-86 900.5,-86 900.5,-92 894.5,-98 888.5,-98"/>
<text text-anchor="middle" x="848" y="-83.2" font-family="Noto Sans CJK SC" font-size="11.00">日志详情</text>
<text text-anchor="middle" x="848" y="-71.2" font-family="Noto Sans CJK SC" font-size="11.00">阅读 + 评论 + 版本</text>
</g>
<!-- home&#45;&gt;detail -->
<g id="edge10" class="edge">
<title>home&#45;&gt;detail</title>
<path fill="none" stroke="#6b7280" d="M699.03,-100.72C726.34,-96.89 759.91,-92.19 788.17,-88.24"/>
<polygon fill="#6b7280" stroke="#6b7280" points="788.64,-90.64 795.23,-87.25 787.96,-85.79 788.64,-90.64"/>
</g>
<!-- profile -->
<g id="node9" class="node">
<title>profile</title>
<path fill="#eef8ff" stroke="#b8c7d9" d="M872,-37C872,-37 824,-37 824,-37 818,-37 812,-31 812,-25 812,-25 812,-13 812,-13 812,-7 818,-1 824,-1 824,-1 872,-1 872,-1 878,-1 884,-7 884,-13 884,-13 884,-25 884,-25 884,-31 878,-37 872,-37"/>
<text text-anchor="middle" x="848" y="-22.2" font-family="Noto Sans CJK SC" font-size="11.00">我的</text>
<text text-anchor="middle" x="848" y="-10.2" font-family="Noto Sans CJK SC" font-size="11.00">资料 + 安全</text>
</g>
<!-- home&#45;&gt;profile -->
<g id="edge11" class="edge">
<title>home&#45;&gt;profile</title>
<path fill="none" stroke="#6b7280" d="M687.47,-89.99C721.72,-74.75 770.6,-53 805.21,-37.6"/>
<polygon fill="#6b7280" stroke="#6b7280" points="806.53,-39.69 811.93,-34.6 804.54,-35.21 806.53,-39.69"/>
</g>
<!-- backup -->
<g id="node11" class="node">
<title>backup</title>
<path fill="#eef8ff" stroke="#b8c7d9" d="M1384,-113C1384,-113 1297,-113 1297,-113 1291,-113 1285,-107 1285,-101 1285,-101 1285,-89 1285,-89 1285,-83 1291,-77 1297,-77 1297,-77 1384,-77 1384,-77 1390,-77 1396,-83 1396,-89 1396,-89 1396,-101 1396,-101 1396,-107 1390,-113 1384,-113"/>
<text text-anchor="middle" x="1340.5" y="-92.2" font-family="Noto Sans CJK SC" font-size="11.00">AES&#45;GCM 本地备份</text>
</g>
<!-- editor&#45;&gt;backup -->
<g id="edge13" class="edge">
<title>editor&#45;&gt;backup</title>
<path fill="none" stroke="#6b7280" d="M1067.08,-124.65C1128.49,-117.96 1218.33,-108.19 1277.83,-101.71"/>
<polygon fill="#6b7280" stroke="#6b7280" points="1278.24,-104.13 1284.93,-100.94 1277.71,-99.26 1278.24,-104.13"/>
<text text-anchor="middle" x="1163.5" y="-125.8" font-family="Times,serif" font-size="14.00">保存后</text>
</g>
<!-- admin -->
<g id="node10" class="node">
<title>admin</title>
<path fill="#fff0f0" stroke="#b8c7d9" d="M1224,-73C1224,-73 1103,-73 1103,-73 1097,-73 1091,-67 1091,-61 1091,-61 1091,-49 1091,-49 1091,-43 1097,-37 1103,-37 1103,-37 1224,-37 1224,-37 1230,-37 1236,-43 1236,-49 1236,-49 1236,-61 1236,-61 1236,-67 1230,-73 1224,-73"/>
<text text-anchor="middle" x="1163.5" y="-58.2" font-family="Noto Sans CJK SC" font-size="11.00">管理后台</text>
<text text-anchor="middle" x="1163.5" y="-46.2" font-family="Noto Sans CJK SC" font-size="11.00">备份 / 邀请码 / 音乐 / 标签</text>
</g>
<!-- profile&#45;&gt;admin -->
<g id="edge12" class="edge">
<title>profile&#45;&gt;admin</title>
<path fill="none" stroke="#6b7280" d="M884.05,-23.02C931.97,-28.53 1019.31,-38.56 1083.43,-45.92"/>
<polygon fill="#6b7280" stroke="#6b7280" points="1083.5,-48.39 1090.74,-46.76 1084.06,-43.53 1083.5,-48.39"/>
<text text-anchor="middle" x="998.5" y="-46.8" font-family="Times,serif" font-size="14.00">管理员</text>
</g>
<!-- admin&#45;&gt;backup -->
<g id="edge14" class="edge">
<title>admin&#45;&gt;backup</title>
<path fill="none" stroke="#6b7280" d="M1236.18,-71.38C1250.01,-74.55 1264.38,-77.83 1277.85,-80.91"/>
<polygon fill="#6b7280" stroke="#6b7280" points="1277.44,-83.33 1284.81,-82.5 1278.53,-78.55 1277.44,-83.33"/>
</g>
</g>
</svg>
